<?xml version="1.0" encoding="utf-8"?>
<!-- Generator: Adobe Illustrator 18.1.1, SVG Export Plug-In . SVG Version: 6.00 Build 0)  -->
<svg version="1.1" id="Layer_1" xmlns="http://www.w3.org/2000/svg" xmlns:xlink="http://www.w3.org/1999/xlink" x="0px" y="0px"
	 viewBox="0 0 146.6 60.5" enable-background="new 0 0 146.6 60.5" xml:space="preserve">
<path d="M87.8,14.8c-0.9-1.6-1.7-2.4-2.5-2.5c-0.9-0.1-1.6,0.5-2.4,1.7c-0.3,0-0.6,0-1,0c-0.8-1.6-1.5-2.5-2.4-2.5h0
	c-0.9,0-1.8,1-2.9,2.9c-0.2,0-0.4,0.1-0.5,0.1c-1.4-1.6-2.4-2.4-3.3-2.2c-1,0.2-1.6,1.3-2.1,3.5l0.1,0c-0.2,0.1-0.4,0.1-0.6,0.2
	l0.1-0.1c-1.2-1.4-2.2-2-3.1-1.7c-1.2,0.4-2.1,2.5-2.2,3.6c-0.3,0.1-0.5,0.2-0.8,0.3l-0.4-0.2c-1.6-1-2.6-1.4-3.4-1
	c-0.6,0.6-1,1.8-1.3,3.5c-0.8,0.4-2.1-2.7-4.1-1.6c-0.9,0.5-1.2,1.9-1.3,4.4l0,0c0,0,0,0-0.1,0c-1.9-1-3.1-1.3-3.9-0.7
	c-0.8,0.5-1,1.6-0.9,3.5c-0.1,0-0.1,0.1-0.2,0.1c-1.9-1.1-3.1-1.6-3.9-1.1c-0.8,0.5-1,1.7-0.9,4c-0.2,0.1-0.5,0.3-0.7,0.4
	c-1.6-0.9-2.8-1.2-3.6-0.8c-0.8,0.4-1.1,1.5-1.1,3.2c-0.1,0.1-0.3,0.1-0.4,0.2c-1.7-1.1-2.8-1.6-3.6-1.2c-0.9,0.4-1.2,1.5-1.2,3.4
	c-0.3,0.1-0.5,0.2-0.8,0.3c-1.8-1.2-3.1-1.6-3.9-1.2c-0.9,0.4-1.3,1.5-1.3,3.4c-0.1,0-0.2,0.1-0.3,0.1c-1.6-1.1-2.7-1.7-3.6-1.4
	c-0.9,0.3-1.3,1.3-1.3,3.2c0,0-0.1,0-0.1,0.1C20,37.5,19,37,18.1,37.3c-0.9,0.3-1.3,1.3-1.6,3.1c-0.1,0-0.2,0.1-0.3,0.1
	c-1.5-1.5-2.6-2.1-3.5-1.9c-0.9,0.3-1.4,1.4-1.8,3.6c-2.5,0.8-4.9,1.4-7.1,2l-0.1,1.2c12.5,5.7,19.6,5.3,28.5,4.4
	c1.9-0.1,3.7-0.3,5.6-0.5c2.9-0.2,6-0.4,9.6-0.4c3.7,0,7.8,0.4,12.2,0.8c16.5,1.5,35.2,3.2,39.7-14.3c0.6-2.4,0.7-4.7,0.2-7.1
	c-0.4-2.4-1.4-4.7-2.8-6.9C94.4,17.8,91.3,15.8,87.8,14.8L87.8,14.8z"/>
<path fill="#DEADB3" d="M60.2,19.8c0.1-1,0.3-1.6,0.5-1.7c0.3-0.1,0.9,0.1,1.8,0.7C61.7,19.1,60.9,19.4,60.2,19.8L60.2,19.8z
	 M72,15.5c0.3-1.2,0.6-1.8,0.9-1.8c0.3-0.1,0.8,0.4,1.6,1.2C73.6,15,72.8,15.2,72,15.5L72,15.5z M66.3,17.2c0.4-1.1,0.7-1.7,1.1-1.8
	c0.3-0.1,0.7,0.2,1.4,1C68,16.6,67.1,16.9,66.3,17.2L66.3,17.2z M78.2,14.3c0.6-0.9,1-1.4,1.3-1.4h0c0.3,0,0.6,0.4,1,1.2
	C79.7,14.1,78.9,14.2,78.2,14.3L78.2,14.3z M84.4,14.2c0.3-0.4,0.5-0.5,0.7-0.5c0.2,0,0.5,0.3,0.8,0.7
	C85.4,14.3,84.9,14.2,84.4,14.2L84.4,14.2z M44.7,28.2c-0.1-1.3,0-1.9,0.3-2.1c0.3-0.2,0.9,0.1,2,0.7c-0.2,0.1-0.4,0.2-0.6,0.4
	C45.8,27.5,45.3,27.9,44.7,28.2L44.7,28.2z M49.8,25.1c0-0.9,0.1-1.4,0.3-1.6c0.3-0.2,0.9,0,1.8,0.4C51.1,24.3,50.4,24.8,49.8,25.1
	L49.8,25.1z M54.7,22.4c0.1-1.5,0.3-2.3,0.6-2.5c0.3-0.2,1,0.2,2.1,1.1C56.5,21.5,55.6,22,54.7,22.4L54.7,22.4z M12.3,41.7
	c0.2-1.2,0.4-1.8,0.7-1.8c0.3-0.1,0.8,0.3,1.7,1.1C13.9,41.2,13.1,41.5,12.3,41.7L12.3,41.7z M17.9,39.9c0.2-0.8,0.4-1.2,0.6-1.3
	c0.3-0.1,0.7,0.1,1.4,0.6C19.3,39.4,18.6,39.6,17.9,39.9L17.9,39.9z M22.9,38.1c0.1-0.9,0.2-1.4,0.4-1.5c0.3-0.1,0.8,0.2,1.7,0.7
	C24.3,37.6,23.6,37.8,22.9,38.1L22.9,38.1z M28.2,36.1c0-1,0.2-1.5,0.5-1.6c0.3-0.1,0.9,0.1,1.9,0.7C29.8,35.4,29,35.8,28.2,36.1
	L28.2,36.1z M34.2,33.5c0-1,0.1-1.5,0.4-1.6c0.3-0.1,0.8,0.1,1.7,0.7C35.6,32.9,34.9,33.2,34.2,33.5L34.2,33.5z M39.4,31.1
	c0-0.8,0.2-1.3,0.4-1.4c0.3-0.1,0.8,0,1.5,0.4C40.7,30.4,40.1,30.7,39.4,31.1L39.4,31.1z"/>
<path fill="#DEADB3" d="M83.2,15.4l0.2,0.1c0,0,0-0.1,0.1-0.1c1.2,0.1,2.3,0.2,3.4,0.5c0,0,0.1,0.1,0.1,0.1l0.2-0.1
	c3.4,0.9,6.3,2.8,8.4,6c1.3,2.1,2.2,4.2,2.6,6.4c0.4,2.1,0.3,4.3-0.2,6.5c-0.5,1.8-1.1,3.4-1.9,4.8c-11.3-5.5-23.9-1.5-37.4,2.7
	c-6.9,2.2-13.9,4.4-21.1,5.4c-1.5,0.1-3,0.3-4.4,0.4c-0.4,0-0.7,0.1-1.1,0.1c-0.4,0-0.7,0-1.1,0l0,0.1c-7.9,0.8-14.5,1-25.2-3.6
	c6.6-1.8,14.7-4.5,22.4-7.5c6.9-2.8,13.6-5.9,18.8-9.1c6.4-4,19.5-11.3,31-12.7c1-0.1,2-0.2,2.9-0.2c0,0,0,0,0,0l0.1,0
	C81.8,15.4,82.5,15.4,83.2,15.4L83.2,15.4z"/>
<path fill="#DEADB3" d="M59.4,43.7c0.2,0.7,0.6,1.7,1,2.6c0.3,0.6,0.8,1.4,1.3,2.1c-0.7-0.1-1.4-0.1-2-0.2
	c-4.4-0.4-8.5-0.8-12.3-0.8c-0.3,0-0.6,0-0.9,0c4.3-1.1,8.5-2.4,12.6-3.7C59.2,43.8,59.3,43.7,59.4,43.7L59.4,43.7z"/>
<path fill="#DEADB3" d="M65.2,41.9c0.2,1.1,0.6,2.2,1.1,3.3c0.5,1.1,1.5,2.7,2.4,3.8c-2-0.1-4.1-0.3-6.1-0.4
	c-0.5-0.7-1.3-1.8-1.6-2.5c-0.4-0.9-0.8-1.9-1-2.5C61.8,42.9,63.5,42.4,65.2,41.9L65.2,41.9z"/>
<path fill="#DEADB3" d="M72.8,39.9c0.2,1.3,0.6,2.7,1.2,3.9c0.8,1.8,2,4,2.7,5.2c-2.3,0.1-4.6,0.1-7,0c-0.8-0.8-2.1-2.9-2.7-4.1
	c-0.5-1.1-0.9-2.2-1.1-3.2C68.2,41,70.5,40.4,72.8,39.9L72.8,39.9z"/>
<path fill="#DEADB3" d="M84.4,48c-0.5-0.5-1.6-2.4-2.6-4.7c-0.6-1.5-1.1-3.1-1.3-4.7c5.2-0.4,10.2,0.1,14.9,2.3
	C92.8,44.8,88.9,46.9,84.4,48L84.4,48z"/>
<path fill="#DEADB3" d="M79.8,38.7c0.2,1.6,0.7,3.4,1.4,4.9c0.8,2,1.8,3.7,2.5,4.6c-2,0.4-4.1,0.7-6.3,0.8c-0.6-1-1.9-3.4-2.8-5.4
	c-0.5-1.3-1-2.6-1.1-3.8C75.6,39.3,77.7,38.9,79.8,38.7L79.8,38.7z"/>
<path fill-rule="evenodd" clip-rule="evenodd" fill="#DEADB3" d="M67.8,34.1c1,5.5-4.5,11.1-4.4,16.3c1.6,0.1,2.8-1.1,3.2-1.1
	c-0.3,0-0.5,1.4-0.7,2.9c1.2-0.1,2.5-1.5,2.8-1.6c0.1,0.9-0.3,2.2-0.2,2.6c9.6-4.5,14.2-14.8,14-18.1L67.8,34.1z"/>
<path d="M73.1,49.5c-1.6-0.3-3.2-0.9-4.6-1.8c-1.2-0.7-2.2-1.6-3-2.8c0.2-0.5,0.5-1.1,0.7-1.6c2-4.5,3.1-7.2,1.3-11.7
	c0.3,3.2-0.2,6.5-2.5,11.2c-1.2,2.6-2.3,5.1-2.3,7.6l0,0.6c1,0.1,1.8,0,2.7-0.4c-0.1,0.8-0.2,1.5-0.3,2.3c0.9-0.1,1.4-0.4,2.8-1
	c-0.1,0.8-0.1,1.4,0.1,2.2c4.2-2,7.5-4.6,10.4-8.2c3.4-4.4,5-8.1,4.5-13.4c-0.9,4.3-1.7,8.1-5.5,12.6C76.2,46.7,74.8,48.2,73.1,49.5
	L73.1,49.5z"/>
<path fill="#DEADB3" d="M65,46.1c0.8,1,1.8,1.9,2.9,2.6c1.3,0.8,2.7,1.3,4.1,1.7l-2.8,1.8l0-2.2l-2.6,1.4l-0.2-2.6l-2.4,1.1L65,46.1
	z"/>
<path fill-rule="evenodd" clip-rule="evenodd" fill="#DEADB3" d="M34.2,39c0.1,5.6-6.1,10.3-6.7,15.5c1.6,0.3,2.9-0.6,3.3-0.6
	c-0.3,0-0.7,1.3-1.1,2.8c1.2,0,2.7-1.1,3-1.1c0,0.9-0.6,2.1-0.6,2.5c10.1-3,16.3-12.5,16.5-15.9L34.2,39z"/>
<path d="M37.2,55c-1.6-0.6-3.1-1.4-4.3-2.4c-1-0.9-1.9-1.9-2.6-3.2c0.3-0.5,0.6-1,1-1.5c2.7-4.1,4.2-6.6,3-11.4
	c-0.2,3.2-1.1,6.4-4.1,10.7c-1.5,2.4-3,4.7-3.4,7.2L26.8,55c1,0.2,1.8,0.3,2.7,0c-0.2,0.7-0.4,1.5-0.6,2.2c0.9,0,1.5-0.1,2.9-0.5
	c-0.2,0.8-0.3,1.3-0.2,2.2c4.4-1.3,8.1-3.4,11.5-6.6c4-3.8,6.2-7.3,6.4-12.6c-1.5,4.1-2.9,7.7-7.3,11.7C40.7,52.6,39.1,53.9,37.2,55
	L37.2,55z"/>
<path fill="#DEADB3" d="M29.7,50.4c0.7,1.2,1.5,2.1,2.5,3c1.1,1,2.4,1.7,3.8,2.3l-3,1.3l0.4-2.2l-2.8,1l0.2-2.6l-2.5,0.7L29.7,50.4z
	"/>
<path d="M109.4,28.7c0.7,0.8,1.4,1.5,2,1.9c0.7,0.5,1.3,0.8,1.8,0.6l0.3-0.2c0.3-0.3,0.5-0.8,0.6-1.6c0.1-0.6,0.1-1.4,0-2.2
	c0.4-0.1,0.9-0.3,1.3-0.4c0.4,0.8,0.8,1.6,1.1,2.2c0.5,0.7,0.9,1.2,1.4,1.2l0.3-0.1c0.5-0.2,0.9-0.9,1.3-1.8
	c0.3-0.8,0.6-1.9,0.9-3.1c0.1,0,0.3-0.1,0.4-0.1c0.3,0.6,0.6,1.1,0.8,1.5c0.4,0.6,0.8,1,1.3,1l0.3-0.1c0.4-0.2,0.8-0.7,1.1-1.5
	c0.3-0.6,0.5-1.4,0.8-2.4c0.3-0.1,0.6-0.2,0.8-0.3c0.4,0.9,0.8,1.7,1.1,2.3c0.5,0.8,1,1.4,1.5,1.4l0.3-0.1c0.5-0.2,1-1,1.4-2.2
	c0.3-0.9,0.6-2.1,0.9-3.5c0.6,1,1.2,2,1.8,2.8c0.7,1,1.4,1.6,2,1.5l0.3-0.1c0.5-0.3,0.9-1.4,1.1-2.8c0.2-1.1,0.3-2.5,0.4-4
	c0.2-0.1,0.4-0.2,0.6-0.3c1.1-0.6,2-1.2,2.8-1.8c1.9-1.6,3-3.4,3.5-5.2l0,0c0.4-1.8,0.1-3.5-0.7-5.1c-0.2-0.4-0.5-0.9-0.8-1.3
	c-0.9-1.1-2.1-1.8-3.4-2.3c-1.7-0.6-3.7-0.6-5.5-0.3c-1.9,0.3-3.6,1.1-5,2.2c-0.9,0.7-1.6,1.6-2,2.6c-0.3,0.1-0.5,0.2-0.8,0.2
	c-4.1,1.3-14.6,4.6-18.9,1.9C103,6.7,99.2,6.1,95.8,7c-2.2,0.6-4.3,1.8-6,3.5c-1.7,1.7-3,3.9-3.8,6.5c-1.5,5.1-0.8,11.5,3.8,18.4
	l0.4,0.6l0.6-0.4c3.1-2.2,10.2-4.4,18.4-6.9C109.3,28.7,109.3,28.7,109.4,28.7L109.4,28.7z"/>
<path fill="#DEADB3" d="M90.6,34c-3.9-6.2-4.5-12-3.2-16.6c0.7-2.3,1.9-4.4,3.4-5.9c1.5-1.5,3.4-2.6,5.3-3.2c3-0.8,6.4-0.2,9.4,2.1
	l0.1,0c4.8,3,15.8-0.4,20.1-1.8c0.5-0.2,0.9-0.3,1.1-0.3l0.4-0.1l0.1-0.4c0.3-0.9,0.9-1.7,1.7-2.3c1.1-0.9,2.7-1.6,4.3-1.9
	c1.6-0.3,3.4-0.2,4.8,0.3c1.1,0.4,2.1,1,2.8,1.8c0.3,0.3,0.5,0.7,0.7,1c0.7,1.2,0.9,2.6,0.5,4l0,0c-0.3,1.5-1.3,3-3,4.4
	c-0.7,0.6-1.5,1.2-2.5,1.7c-0.4,0.2-0.7,0.4-1.1,0.6l-0.2,0c0,0,0,0.1,0,0.1c-7.7,3.9-17.7,7-26.5,9.7C101,29.7,94.2,31.8,90.6,34
	L90.6,34z"/>
<path fill="#DEADB3" d="M118.7,25.7c-0.2,0.8-0.4,1.5-0.6,2.1c-0.1,0.3-0.2,0.5-0.3,0.7c0-0.1-0.1-0.2-0.2-0.3
	c-0.3-0.5-0.6-1.1-1-1.8C117.3,26.2,118,26,118.7,25.7L118.7,25.7z"/>
<path fill="#DEADB3" d="M123.3,24.2c-0.1,0.5-0.3,0.9-0.4,1.2c-0.1,0.2-0.1,0.3-0.2,0.4c0,0,0-0.1,0-0.1c-0.2-0.3-0.4-0.7-0.7-1.1
	C122.5,24.5,122.9,24.3,123.3,24.2L123.3,24.2z"/>
<path fill="#DEADB3" d="M135.2,19.3c-0.1,1.1-0.2,2.2-0.3,3.1c-0.1,0.7-0.2,1.2-0.3,1.5c-0.1-0.2-0.3-0.4-0.6-0.7
	c-0.5-0.7-1.1-1.6-1.6-2.5C133.4,20.2,134.3,19.7,135.2,19.3L135.2,19.3z"/>
<path fill="#DEADB3" d="M129.5,21.8c-0.2,0.9-0.4,1.7-0.7,2.4c-0.2,0.5-0.3,0.8-0.4,1.1c-0.1-0.1-0.1-0.3-0.3-0.5
	c-0.3-0.5-0.7-1.2-1-2.1C127.9,22.5,128.7,22.2,129.5,21.8L129.5,21.8z"/>
<path fill="#DEADB3" d="M112.5,27.7c0,0.7,0,1.2,0,1.7c0,0.1,0,0.3,0,0.4c-0.1-0.1-0.1-0.1-0.2-0.2c-0.4-0.3-0.9-0.8-1.3-1.3
	C111.4,28,112,27.9,112.5,27.7L112.5,27.7z"/>
<path fill-rule="evenodd" clip-rule="evenodd" d="M138.8,6.5c-0.8-0.4-3.7-1.8-5.5-1.5c-1.9,0.3-2.4,2.4,1.3,1.6l1.8-0.4L138.8,6.5z
	"/>
<path d="M93.7,10.5c-0.7,1.3-1,2.8-0.8,4.4c0.5,4.2,4.4,7.2,8.6,6.7c2.1-0.3,3.9-1.4,5.1-2.9c1.1-1.4,1.7-3.2,1.6-5.1l-11.6-3.4
	l0.3,1.5L93.7,10.5z"/>
<path fill="#F58220" d="M106.5,13.9c0.1,1.5-0.3,3-1.2,4.1c-0.9,1.2-2.3,2-3.9,2.2c-3.2,0.4-6.1-1.9-6.5-5c-0.2-1.2,0.1-2.4,0.6-3.4
	l2.1,0.7l-0.2-1.3L106.5,13.9z"/>
<path fill-rule="evenodd" clip-rule="evenodd" fill="#DEADB3" d="M95.2,11.7c-0.5,1.1-0.8,2.3-0.6,3.6c0.4,3.4,3.5,5.7,6.9,5.3
	c3.3-0.4,5.6-3.3,5.4-6.6l-9.5-2.8l0.2,1.3L95.2,11.7z"/>
<path fill-rule="evenodd" clip-rule="evenodd" d="M102.7,13.9c-0.1-0.5-0.2-1-0.4-1.5l-3.4-1c-0.3,0.9-0.5,1.9-0.3,3
	c0.3,2.6,2.4,4.5,2.7,4.5C101.5,18.9,103,16.5,102.7,13.9L102.7,13.9z"/>
<path fill-rule="evenodd" clip-rule="evenodd" fill="#DEADB3" d="M101.9,12.6c-0.2,0.3-0.3,0.7-0.2,1.1c0.1,0.9,1,1.6,1.9,1.5
	c0.9-0.1,1.5-0.8,1.5-1.7L101.9,12.6z"/>
<path d="M117.9,41.9c-0.3-1.3-0.7-2.4-1.1-3.3c-0.5-1.1-1-1.8-1.5-2l-0.3,0c-0.5,0-1.1,0.6-1.6,1.4c-0.2,0.3-0.3,0.6-0.5,0.9
	c0-0.4-0.1-0.7-0.1-1.1c-0.2-1-0.5-1.7-0.9-2l-0.3-0.1c-0.5-0.1-1.2,0.3-1.8,0.9c-0.5,0.5-1.1,1.2-1.7,1.9c-1.7-1.4-3.4-3.4-5.1-5.3
	c-1.1-1.3-2.1-2.5-3.2-3.7c-2.2-2.3-4.1-3.6-5.8-4.3c-1.6-0.6-3-0.6-4.1,0c-1.2,0.5-2.1,1.5-2.8,2.9c-1,1.9-1.6,4.7-1.7,7.7
	c0,0.9,0,1.7,0,2.5c0.4,4.3,2.4,7.3,5.6,9.3c3.1,2,7.2,2.9,11.9,3.2c2.6,0.1,5.4,0.1,8.3-0.2c3.5-0.3,6.1,0.2,9,0.7
	c2.7,0.5,5.8,1.1,10.3,1.2c3.9,0.1,6.5-1,7.7-2.4c0.5-0.6,0.9-1.3,0.9-2c0.1-0.7-0.1-1.4-0.5-2.1c-0.5-0.8-1.5-1.6-2.9-2.1
	c0-1,0-2-0.1-2.7c-0.1-1-0.3-1.7-0.7-2l-0.2-0.1c-0.6-0.2-1.4,0.3-2.3,1.1c-0.8,0.7-1.8,1.8-2.6,2.8c0,0,0,0-0.1,0
	c-0.3-1.1-0.7-2.1-1-2.8c-0.4-1-0.9-1.6-1.4-1.8l-0.3,0c-0.6,0-1.1,0.6-1.6,1.5c-0.3,0.6-0.7,1.3-1,2c-0.3-0.9-0.6-1.7-0.9-2.3
	c-0.4-1-0.9-1.7-1.4-1.9l-0.3,0c-0.6,0-1.1,0.6-1.6,1.5c-0.4,0.7-0.9,1.7-1.3,2.7C118.5,42,118.2,41.9,117.9,41.9L117.9,41.9z"/>
<path fill="#DEADB3" d="M98.8,30.5c1.1,1.1,2.1,2.3,3.2,3.6c2.7,3.2,5.4,6.4,8.7,7.4c6.7,2.1,10.9,2.4,16.2,2.8
	c1.7,0.1,3.6,0.3,5.8,0.5c2.6,0.3,4.2,1.1,4.8,2.1c0.2,0.4,0.3,0.8,0.3,1.2c0,0.4-0.2,0.8-0.6,1.2c-1,1.1-3.2,2-6.6,1.9
	c-4.4-0.1-7.4-0.7-10.1-1.2c-3-0.6-5.7-1.1-9.4-0.8c-2.8,0.2-5.5,0.3-8.1,0.2c-4.4-0.3-8.3-1.2-11.2-3c-2.8-1.8-4.6-4.4-4.9-8.2
	c-0.1-0.7-0.1-1.5,0-2.3c0.2-2.9,0.7-5.4,1.6-7.2c0.6-1.1,1.3-1.9,2.1-2.3c0.8-0.4,1.8-0.4,3,0.1C95,27.2,96.7,28.4,98.8,30.5
	L98.8,30.5z"/>
<path fill="#DEADB3" d="M131.4,43.3c0.6-0.7,1.3-1.4,1.9-1.9c0.3-0.3,0.6-0.5,0.8-0.7c0,0.2,0.1,0.5,0.1,0.8
	c0.1,0.6,0.1,1.3,0.1,2.2c-0.5-0.1-1-0.2-1.6-0.3C132.2,43.4,131.8,43.3,131.4,43.3L131.4,43.3z"/>
<path fill="#DEADB3" d="M125.5,42.8c0.3-0.8,0.7-1.5,1-2.1c0.2-0.3,0.3-0.5,0.4-0.6c0.1,0.2,0.2,0.5,0.4,0.8
	c0.3,0.6,0.5,1.3,0.8,2.1c-0.4,0-0.8-0.1-1.2-0.1C126.4,42.9,125.9,42.8,125.5,42.8L125.5,42.8z"/>
<path fill="#DEADB3" d="M120.2,42.3c0.4-0.8,0.7-1.6,1.1-2.2c0.2-0.3,0.3-0.5,0.4-0.7c0.1,0.2,0.3,0.5,0.4,0.9
	c0.3,0.6,0.6,1.4,0.8,2.3C122,42.5,121.1,42.4,120.2,42.3L120.2,42.3z"/>
<path fill="#DEADB3" d="M113.6,40.9c0.4-0.8,0.7-1.6,1.1-2.1c0.2-0.3,0.3-0.4,0.4-0.6c0.1,0.2,0.3,0.5,0.5,1
	c0.3,0.7,0.6,1.5,0.8,2.4C115.4,41.4,114.5,41.2,113.6,40.9L113.6,40.9z"/>
<path fill="#DEADB3" d="M109.3,39.3c0.5-0.7,1.1-1.3,1.5-1.7c0.2-0.2,0.3-0.3,0.4-0.4c0.1,0.2,0.1,0.5,0.2,0.8
	c0.1,0.6,0.2,1.4,0.2,2.2c-0.2-0.1-0.4-0.1-0.6-0.2C110.4,40,109.8,39.7,109.3,39.3L109.3,39.3z"/>
<path fill-rule="evenodd" clip-rule="evenodd" d="M28.3,38.7c-1.5,0.6-2.4,1.9-2,2.8c0.4,1,1.9,1.2,3.4,0.6c0.3-0.1,0.6-0.3,0.8-0.4
	c-1.4,0.4-2.7,0.1-3.1-0.7c-0.3-0.8,0.2-1.7,1.2-2.4C28.5,38.6,28.4,38.7,28.3,38.7L28.3,38.7z M22.6,40.8c-1,0.2-1.6,0.9-1.6,1.5
	c0.1,0.7,1.1,1.1,2.2,1c0.6-0.1,1-0.3,1.4-0.6c-0.1,0-0.2,0-0.2,0c-1.1,0.2-2.1-0.3-2.2-1C22.1,41.4,22.3,41.1,22.6,40.8L22.6,40.8z
	 M15.3,42.6c-1.1,0.3-1.9,1.1-1.8,1.9c0.1,0.9,1.4,1.5,2.8,1.3c0.6-0.1,1.2-0.3,1.6-0.6c-0.2,0-0.3,0.1-0.5,0.1
	c-1.4,0.2-2.7-0.4-2.8-1.3C14.5,43.4,14.8,42.9,15.3,42.6L15.3,42.6z M81.1,17.8c-1.4,0.5-2.4,1.4-2.2,2.5c0.1,1.3,1.9,2.2,3.9,2
	c0.9-0.1,1.7-0.4,2.3-0.8c-0.4,0.1-0.7,0.2-1.2,0.2c-2,0.2-3.8-0.7-3.9-2C79.9,19,80.3,18.3,81.1,17.8L81.1,17.8z M76.1,24.7
	C74.8,25.1,74,26,74,26.9c0.1,1.3,1.7,2.3,3.8,2.2c1,0,1.9-0.3,2.5-0.8c-0.4,0.1-0.9,0.2-1.4,0.3c-2,0.1-3.7-0.9-3.8-2.2
	C75.1,25.8,75.5,25.1,76.1,24.7L76.1,24.7z M72.2,19.5c-1.2,0.4-2.1,1.2-2,2.1c0.1,1.1,1.6,1.8,3.3,1.6c0.8-0.1,1.5-0.3,2-0.7
	c-0.3,0.1-0.6,0.1-0.9,0.2c-1.7,0.2-3.1-0.6-3.3-1.6C71.3,20.5,71.6,19.9,72.2,19.5L72.2,19.5z M66.8,25c-1.2,0.4-2.1,1.2-2,2.1
	c0.1,1.1,1.6,1.8,3.3,1.6c0.8-0.1,1.5-0.3,2-0.7c-0.3,0.1-0.6,0.1-0.9,0.2c-1.7,0.2-3.1-0.6-3.3-1.6C65.8,25.9,66.2,25.4,66.8,25
	L66.8,25z M61.5,31.7c-1.6,0.6-2.6,1.9-2.2,2.9c0.4,1,2,1.4,3.6,0.8c0.4-0.1,0.7-0.3,1-0.5c-1.5,0.5-3,0.1-3.4-0.8
	c-0.3-0.8,0.2-1.8,1.2-2.4C61.6,31.7,61.5,31.7,61.5,31.7L61.5,31.7z M58.9,25.1c-1.4,0.9-2.1,2.4-1.5,3.3c0.6,0.9,2.2,0.9,3.6,0
	c0,0,0,0,0,0c-1.1,0.3-2.1,0.2-2.5-0.5c-0.6-0.9,0.1-2.4,1.5-3.3C59.7,24.6,59.3,24.8,58.9,25.1L58.9,25.1z M51,27.3
	c-1.4,0.9-2.1,2.4-1.5,3.3c0.6,0.9,2.2,0.9,3.6,0c0,0,0,0,0,0c-1.1,0.3-2.1,0.2-2.5-0.5c-0.6-0.9,0.1-2.4,1.5-3.3
	C51.8,26.9,51.4,27.1,51,27.3L51,27.3z M52.8,33c-1.6,0.5-2.6,1.8-2.3,2.8c0.3,1,1.9,1.4,3.5,0.9c0.4-0.1,0.8-0.3,1.1-0.5
	c0,0,0,0,0,0c-1.6,0.5-3.2,0.1-3.5-0.9C51.4,34.5,51.9,33.7,52.8,33L52.8,33z M43.7,33.5c-1.3,0.5-2.1,1.7-1.8,2.5
	c0.3,0.9,1.7,1.1,3,0.6c0.3-0.1,0.5-0.3,0.8-0.4c-1.2,0.4-2.4,0.1-2.7-0.7c-0.3-0.7,0.2-1.5,1-2.1C44,33.4,43.8,33.4,43.7,33.5
	L43.7,33.5z M64.6,20.5c-1.1,0.3-1.8,1-1.7,1.7c0.2,0.7,1.2,1.1,2.3,0.9c0.5-0.1,0.9-0.3,1.2-0.6c0,0-0.1,0-0.1,0
	c-1.1,0.2-2.2-0.1-2.3-0.9C64,21.3,64.2,20.9,64.6,20.5L64.6,20.5z"/>
</svg>
