<?xml version="1.0" encoding="UTF-8" standalone="no"?>
<!-- Generator: Adobe Illustrator 18.1.1, SVG Export Plug-In . SVG Version: 6.00 Build 0)  -->

<svg
   xmlns:dc="http://purl.org/dc/elements/1.1/"
   xmlns:cc="http://creativecommons.org/ns#"
   xmlns:rdf="http://www.w3.org/1999/02/22-rdf-syntax-ns#"
   xmlns:svg="http://www.w3.org/2000/svg"
   xmlns="http://www.w3.org/2000/svg"
   xmlns:sodipodi="http://sodipodi.sourceforge.net/DTD/sodipodi-0.dtd"
   xmlns:inkscape="http://www.inkscape.org/namespaces/inkscape"
   version="1.1"
   x="0px"
   y="0px"
   viewBox="0 0 132.73438 76.619447"
   enable-background="new 0 0 94.2 63.3"
   xml:space="preserve"
   id="svg2"
   inkscape:version="0.91 r13725"
   sodipodi:docname="banner.svg"
   width="132.73438"
   height="76.619446"><metadata
     id="metadata16"><rdf:RDF><cc:Work
         rdf:about=""><dc:format>image/svg+xml</dc:format><dc:type
           rdf:resource="http://purl.org/dc/dcmitype/StillImage" /><dc:title></dc:title></cc:Work></rdf:RDF></metadata><defs
     id="defs14" /><sodipodi:namedview
     pagecolor="#ffffff"
     bordercolor="#666666"
     borderopacity="1"
     objecttolerance="10"
     gridtolerance="10"
     guidetolerance="10"
     inkscape:pageopacity="0"
     inkscape:pageshadow="2"
     inkscape:window-width="1600"
     inkscape:window-height="834"
     id="namedview12"
     showgrid="false"
     fit-margin-top="0"
     fit-margin-left="0"
     fit-margin-right="0"
     fit-margin-bottom="0"
     inkscape:zoom="3.460722"
     inkscape:cx="62.323661"
     inkscape:cy="1.1338052"
     inkscape:window-x="-2"
     inkscape:window-y="-3"
     inkscape:window-maximized="1"
     inkscape:current-layer="svg2" /><g
     id="Layer_2"
     transform="matrix(0.62938396,0.363375,-0.363375,0.62938396,47.417683,-12.319028)"><polygon
       points="9.1,44.7 32.5,56.4 63,60.4 80.8,54.3 89.7,39.4 90.9,22.8 82.2,10.3 70,2.6 54.1,3.7 29.3,8 20.6,12.4 10.2,19.7 2.5,30.9 "
       id="polygon5"
       style="fill:#8bc34a" /></g><g
     id="Layer_1"
     transform="matrix(0.62938396,0.363375,-0.363375,0.62938396,47.428018,-12.616366)"><path
       d="M 50.1,0.7 C 25.2,4.5 9.4,11.8 2.9,22.5 0.6,26.3 0,29.9 0,32.5 c 0,2.3 0.4,3.7 0.5,4 C 4.1,51.3 29.9,58.6 31,58.9 53.6,65.5 70.8,64.7 81.9,56.5 93.7,47.8 94.1,34.3 94.1,33.7 94.3,22.3 90.9,13.5 84,7.7 71.3,-3 51.2,0.5 50.1,0.7 l 0,0 z M 32.6,53.4 C 25.9,51.5 8.2,44.6 6.1,35 6.1,34.9 6.1,34.8 6,34.7 5.9,34.5 4.7,30.4 8,25.3 11.9,19.1 22.5,10.8 51,6.5 c 0,0 0.1,0 0.1,0 0.2,0 18.5,-3.3 29.3,5.8 5.5,4.6 8.2,11.8 8.1,21.4 0,0.1 -0.4,11.4 -10,18.3 -9.7,6.9 -25.1,7.4 -45.9,1.4 l 0,0 z"
       id="path8"
       inkscape:connector-curvature="0" /><path
       d="m 9.1,30.2 c 0,0 5.1,-13.5 20.2,-14.7 0,0 -16,7.2 -13.9,14.7 l -6.3,0 z"
       id="path10"
       inkscape:connector-curvature="0" /></g><g
     transform="matrix(0.02240253,-0.00395017,-0.00395017,-0.02240253,62.90688,43.965728)"
     id="g8"><path
       inkscape:connector-curvature="0"
       d="m 967,288 36,0 C 1003,182.66667 986,106 952,58 918,10 875,-14 823,-14 781,-14 740.66667,1.6666667 702,33 663.33333,64.333333 628.66667,149.33333 598,288 L 512,676 214,0 25,0 453,922 c -22.66667,119.3333 -50,207.6667 -82,265 -32,57.3333 -71.66667,86 -119,86 -38,0 -71,-14.3333 -99,-43 -28,-28.6667 -44,-73.6667 -48,-135 l -36,0 c 2,98 21.666667,176.3333 59,235 37.33333,58.6667 84,88.3333 140,89 36,0 70,-14.6667 102,-44 32,-29.3333 60,-80 84,-152 24,-72 61,-220.6667 111,-446 l 71,-317 c 28.66667,-131.33333 58.66667,-219 90,-263 31.33333,-44 69.33333,-66.33333 114,-67 74.66667,0 117,52.66667 127,158 z"
       id="path10-1"
       style="fill:currentColor" /></g><text
     xml:space="preserve"
     style="font-style:normal;font-variant:normal;font-weight:normal;font-stretch:normal;font-size:20px;line-height:100%;font-family:Terminal;-inkscape-font-specification:'Terminal, Normal';text-align:center;letter-spacing:0px;word-spacing:0px;writing-mode:lr-tb;text-anchor:middle;fill:#000000;fill-opacity:1;stroke:none;stroke-width:1;stroke-linecap:butt;stroke-linejoin:miter;stroke-opacity:1;stroke-miterlimit:4;stroke-dasharray:none"
     x="66.796875"
     y="72.30304"
     id="text3427"
     sodipodi:linespacing="100%"><tspan
       sodipodi:role="line"
       id="tspan3431"
       x="66.796875"
       y="72.30304"
       style="font-style:normal;font-variant:normal;font-weight:bold;font-stretch:normal;font-size:20px;line-height:100%;font-family:Lucida;-inkscape-font-specification:'Lucida Bold';text-align:center;writing-mode:lr;text-anchor:middle;fill:#fdfd0d;fill-opacity:1;stroke-width:1;stroke-miterlimit:4;stroke-dasharray:none;stroke:#000000;stroke-opacity:1">Algo-Gators</tspan></text>
</svg>