<?xml version="1.0" encoding="utf-8"?>
<!-- Generator: Adobe Illustrator 18.1.1, SVG Export Plug-In . SVG Version: 6.00 Build 0)  -->
<svg version="1.1" xmlns="http://www.w3.org/2000/svg" xmlns:xlink="http://www.w3.org/1999/xlink" x="0px" y="0px"
	 viewBox="0 0 94.2 63.3" enable-background="new 0 0 94.2 63.3" xml:space="preserve">
<g id="Layer_2">
	<polygon fill="#E91E63" points="20.6,12.4 10.2,19.7 2.5,30.9 9.1,44.7 32.5,56.4 63,60.4 80.8,54.3 89.7,39.4 90.9,22.8 
		82.2,10.3 70,2.6 54.1,3.7 29.3,8 	"/>
</g>
<g id="Layer_1">
	<path d="M50.1,0.7C25.2,4.5,9.4,11.8,2.9,22.5C0.6,26.3,0,29.9,0,32.5c0,2.3,0.4,3.7,0.5,4C4.1,51.3,29.9,58.6,31,58.9
		c22.6,6.6,39.8,5.8,50.9-2.4c11.8-8.7,12.2-22.2,12.2-22.8c0.2-11.4-3.2-20.2-10.1-26C71.3-3,51.2,0.5,50.1,0.7L50.1,0.7z
		 M32.6,53.4C25.9,51.5,8.2,44.6,6.1,35c0-0.1,0-0.2-0.1-0.3c-0.1-0.2-1.3-4.3,2-9.4c3.9-6.2,14.5-14.5,43-18.8c0,0,0.1,0,0.1,0
		c0.2,0,18.5-3.3,29.3,5.8c5.5,4.6,8.2,11.8,8.1,21.4c0,0.1-0.4,11.4-10,18.3C68.8,58.9,53.4,59.4,32.6,53.4L32.6,53.4z"/>
	<path d="M9.1,30.2c0,0,5.1-13.5,20.2-14.7c0,0-16,7.2-13.9,14.7H9.1z"/>
</g>
</svg>
